<?xml version="1.0" encoding="utf-8"?>
<!-- Generator: Adobe Illustrator 24.0.1, SVG Export Plug-In . SVG Version: 6.00 Build 0)  -->
<svg version="1.1" id="Layer_1" xmlns="http://www.w3.org/2000/svg" xmlns:xlink="http://www.w3.org/1999/xlink" x="0px" y="0px"
	 width="228px" height="130px" viewBox="0 0 228 130" style="enable-background:new 0 0 228 130;" xml:space="preserve">
<style type="text/css">
	.st0{fill:#FFBC00;stroke:#131417;stroke-width:2;stroke-miterlimit:10;}
	.st1{fill:#131417;}
</style>
<path class="st0" d="M4.1,60.2L45.2,19c2.7-2.7,7-2.7,9.7,0L96,60.2c2.7,2.7,2.7,7,0,9.7L54.9,111c-2.7,2.7-7,2.7-9.7,0L4.1,69.8
	C1.5,67.1,1.5,62.8,4.1,60.2z"/>
<g id="layer101_1_">
	<path class="st1" d="M32.2,58.2c-0.2-0.2-0.4-0.4-0.4-0.4c0,0,0.3,0.1,0.7,0.1c0.4,0.1,1,0.2,1.3,0.3c0.4,0.1,0.7,0.1,0.7,0.1
		s-0.2,0.2-0.4,0.4c-0.2,0.2-0.5,0.4-0.6,0.4C33.2,59,32.7,58.7,32.2,58.2z"/>
	<path class="st1" d="M43.6,60.8c-0.6-0.6-1.2-1.3-1.1-1.3c0,0,3,0.1,3.1,0.2c0,0-0.2,0.3-0.5,0.7C44.1,61.4,44.2,61.4,43.6,60.8z"
		/>
	<path class="st1" d="M51.4,59.9L51,59.7l0.6-0.1c0.8-0.1,2.2-0.1,2.2-0.1c0,0.1-0.5,0.7-0.7,0.8c-0.1,0.1-0.2,0.1-0.3,0.1
		C52.6,60.7,52,60.4,51.4,59.9z"/>
	<path class="st1" d="M59.4,59.6l-0.2-0.2l-0.2-0.2l0.1-0.1c0.1,0,0.2-0.1,0.3,0c0.1,0,0.1,0,0,0.2L59.4,59.6z"/>
	<path class="st1" d="M65.6,58.8c-0.1,0-0.7-0.4-0.7-0.4c0.1-0.1,1-0.2,1.1-0.2c0,0-0.1,0.1-0.1,0.3C65.7,58.7,65.6,58.8,65.6,58.8z
		"/>
	<path class="st1" d="M30.6,57.5c1.3,1.7,2,2.4,2.8,2.4c0.4,0,0.7-0.2,1.6-1c1.3-1.2,1.9-1.5,2.8-1.5c1.3,0,2.2,0.7,4,2.8
		c1,1.2,1.6,1.8,2,1.9c0.4,0.1,0.7,0,1.3-0.7c0.3-0.3,0.7-0.8,1-1.1c0.7-0.7,1-0.8,1.8-0.8c0.8,0,1.2,0.2,3.1,1.4
		c1,0.6,1.6,0.7,2.1,0.5c0.3-0.1,0.6-0.4,1.1-1c0.8-1.1,1.5-1.5,2.3-1.4c0.5,0.1,1,0.3,1.7,1c0.7,0.6,1,0.8,1.1,0.8s0.3-0.1,0.7-0.8
		c0.5-0.8,0.7-1.1,1.1-1.3c0.3-0.1,0.4-0.2,0.9-0.2c0.4,0,0.6,0,1,0.2c0.2,0.1,0.7,0.4,1,0.5c0.6,0.4,1,0.6,1.3,0.7
		c0.3,0.1,0.6-0.1,1.1-1c0.7-1.3,1.3-1.6,2.2-1.6c0.7-0.1,1,0.1,2.1,0.5c0.5,0.2,1,0.4,1.3,0.4c0.4,0.1,0.6,0.4,0.6,0.7
		c0,0.3-0.2,0.6-0.5,0.7c-0.2,0.1-0.4,0.1-1.6-0.4c-1.3-0.5-1.9-0.6-2.3-0.4c-0.1,0.1-0.4,0.4-0.6,0.7c-0.9,1.4-1.3,1.8-2.4,1.8
		c-0.5,0-1-0.2-1.8-0.7c-0.8-0.5-1.3-0.7-1.5-0.7s-0.4,0.2-0.9,1c-0.6,1-1,1.3-1.8,1.4c-0.4,0-0.4,0-0.8-0.1c-0.2-0.1-0.7-0.4-1-0.7
		c-0.6-0.5-1-0.7-1.2-0.7c-0.2,0-0.5,0.3-0.9,0.8c-0.9,1.2-1.6,1.6-2.5,1.7c-0.9,0.1-1.6-0.2-3.1-1.1c-1.9-1.2-2.2-1.2-3.4,0.1
		c-0.7,0.9-1.2,1.3-1.6,1.4c-0.8,0.3-1.8,0.1-2.7-0.7c-0.2-0.1-0.8-0.8-1.3-1.5c-1.5-1.8-2.2-2.4-3-2.4c-0.5,0-0.9,0.2-1.9,1.1
		c-1.2,1-1.6,1.3-2.3,1.4c-0.5,0.1-1.2-0.1-1.8-0.4c-0.6-0.3-1.4-1.1-2.2-2.2c-0.9-1.2-1.2-1.6-1.6-2c-0.3-0.3-0.3-0.4-0.3-0.7
		c0-0.4,0.2-0.6,0.5-0.7C28.9,55.2,29.1,55.4,30.6,57.5z"/>
	<path class="st1" d="M22.8,55.9c-0.1-0.1,0.1-0.5,0.4-1c0.5-0.9,1.5-1.7,2.4-2.1c1.3-0.5,3-0.4,4.6,0.1c3.8,1.3,9.1,2.3,13.8,2.8
		c4.3,0.4,9.1,0.3,13.3-0.1C61.4,55,65.4,54.2,69,53c1.4-0.4,2.2-0.6,3.2-0.5c1.5,0.1,2.5,0.4,3.4,1.4c0.5,0.5,0.7,0.7,1,1.3
		c0.2,0.4,0.4,0.7,0.4,0.7c0,0.1-0.1,0-0.3,0c-0.9-0.3-2.7-0.4-4-0.2c-0.4,0.1-1.1,0.2-1.6,0.4c-0.9,0.2-1,0.3-1.3,0.2
		c-1.3-0.3-2.2-0.1-3.1,0.7l-0.1,0.2l-1.3,0.3c-0.7,0.1-1.3,0.2-1.4,0.2c-0.1,0-0.4-0.1-0.6-0.1c-0.4-0.1-0.5-0.1-1-0.1
		c-0.7,0.1-1.2,0.2-1.6,0.6c-0.2,0.2-0.3,0.2-1.4,0.4l-1.1,0.1l-0.4-0.1c-0.4-0.2-1.3-0.3-1.8-0.1c-0.1,0.1-0.5,0.2-0.7,0.3
		c-0.4,0.2-0.4,0.2-1.5,0.3c-0.6,0.1-1.8,0.1-2.6,0.1c-1.4,0-1.6,0-1.9-0.1c-0.5-0.1-1.6-0.1-1.9-0.1c-0.3,0.1-1.5,0.1-4-0.1
		l-1.4-0.1L41.2,58c-1-0.9-1.8-1.3-2.8-1.5c-1-0.1-1.8,0.1-2.7,0.7l-0.4,0.3l-1.1-0.2c-1-0.2-2.3-0.4-2.8-0.6
		c-0.2-0.1-0.3-0.1-0.7-0.6c-0.6-0.8-1.1-1.3-1.4-1.5s-0.9-0.1-1.3,0c-0.3,0.1-0.7,0.4-0.8,0.7c-0.1,0.2-0.1,0.2-0.2,0.2
		c-0.1,0-0.4-0.1-1-0.1c-1-0.1-1.8,0.1-2.6,0.2C23.1,55.8,22.8,55.9,22.8,55.9z"/>
	<path class="st1" d="M77.7,64.2c0.7,0.7,1.3,1.6,1.6,2.9c0.1,0.4,0.1,0.7,0.1,1.9c0,1.3,0,1.4-0.2,2.2c-0.4,1.4-1,2.5-1.8,3.5
		c-0.7,0.7-1,1-3.1,2.3c-4.6,2.8-12,4.6-21,4.9c-1.6,0.1-5.1,0.1-6.8,0c-8.7-0.4-16.3-2.2-20.8-4.9c-0.4-0.2-1-0.7-1.4-0.8
		c-0.8-0.5-1.4-1-1.9-1.6c-1.3-1.5-1.9-3.4-1.9-5.5c0-2.2,0.7-3.8,1.9-5c1-1,2.2-1.4,3.8-1.4c1.1,0,1.6,0.1,2.9,0.5
		c4.9,1.6,10.2,2.5,16.1,3c1.6,0.1,7.6,0.1,9.2,0c6.1-0.4,10.8-1.3,16.1-3c1.5-0.4,2.2-0.6,3.4-0.5c0.7,0,1,0.1,1.6,0.2
		C76.5,63.3,77.1,63.7,77.7,64.2z"/>
	<path class="st1" d="M20.1,65.3c-0.7-1.5-0.9-3.3-0.4-4.8c0.1-0.7,0.7-1.6,1-2.2c1.2-1.5,3.2-2.2,5.5-2c0.4,0.1,0.8,0.1,0.8,0.1
		s0.1,0.1,0.1,0.2c0.1,0.1,0.2,0.4,0.4,0.6c0.1,0.2,0.7,1,1.3,1.6c1,1.4,1.8,2.2,2.5,2.6c0.9,0.5,1.9,0.7,2.8,0.5
		c0.8-0.2,1.3-0.5,2.5-1.6c0.7-0.6,1.1-0.9,1.3-0.9s0.5,0.1,0.9,0.5c0.1,0.1,0.7,0.7,1.3,1.4c1.3,1.6,1.9,2.2,2.7,2.5
		c1,0.4,1.9,0.5,2.8,0.1c0.4-0.2,0.9-0.7,1.9-1.8c0.2-0.3,0.5-0.5,0.6-0.5c0.1,0,0.8,0.3,1.5,0.8c1.3,0.9,2.2,1.2,3.3,1.2
		c1.3,0,2.2-0.5,3.1-1.8c0.6-0.7,0.4-0.7,1.3-0.1c1,0.9,1.8,1.2,2.7,1s1.5-0.7,2.2-1.8l0.4-0.6l0.2,0.1c0.1,0.1,0.4,0.3,0.7,0.4
		c1,0.7,1.7,0.9,2.5,0.8c1-0.1,1.7-0.5,2.5-1.7c0.7-1.1,0.7-1,1-1c0.1,0,0.6,0.2,1,0.4c0.9,0.4,1.6,0.6,1.9,0.6c0.3,0,0.7-0.2,1-0.4
		c0.7-0.7,0.7-1.7-0.1-2.3c-0.2-0.2-1.1-0.6-1.3-0.5c0,0-0.1,0-0.1-0.1s0-0.1-0.1,0c-0.1,0-0.1,0-0.1,0c0-0.1,0.2-0.1,0.5-0.2
		c2.8-0.7,5.2-0.1,6.7,1.4c1.7,1.7,2,4.6,0.9,7.2l-0.2,0.4l-0.2-0.4c-0.6-1-1.3-1.8-2.1-2.3c-1.1-0.7-2.1-1-3.6-1
		c-1.1,0-1.9,0.1-2.9,0.4c-10.1,3.4-21.7,4.1-32.8,2.2c-3-0.5-5.9-1.2-8.8-2.2c-1.3-0.4-2.1-0.5-3.3-0.4c-1.1,0.1-1.8,0.2-2.6,0.6
		c-1,0.5-1.8,1.1-2.4,2.1c-0.1,0.2-0.4,0.6-0.4,0.7l-0.1,0.3L20.1,65.3z"/>
</g>
<path class="st0" d="M132,58.9L173,17.8c2.7-2.7,7-2.7,9.7,0l41.1,41.1c2.7,2.7,2.7,7,0,9.7l-41.1,41.1c-2.7,2.7-7,2.7-9.7,0
	L132,68.5C129.3,65.9,129.3,61.5,132,58.9z"/>
<g id="layer101_2_">
	<path class="st1" d="M160,57c-0.2-0.2-0.4-0.4-0.4-0.4c0,0,0.3,0.1,0.7,0.1c0.4,0.1,1,0.2,1.3,0.3c0.4,0.1,0.7,0.1,0.7,0.1
		s-0.2,0.2-0.4,0.4c-0.2,0.2-0.5,0.4-0.6,0.4C161,57.8,160.5,57.4,160,57z"/>
	<path class="st1" d="M171.5,59.5c-0.6-0.6-1.2-1.3-1.1-1.3c0,0,3,0.1,3.1,0.2c0,0-0.2,0.3-0.5,0.7
		C171.9,60.2,172.1,60.1,171.5,59.5z"/>
	<path class="st1" d="M179.2,58.7l-0.4-0.2l0.6-0.1c0.8-0.1,2.2-0.1,2.2-0.1c0,0.1-0.5,0.7-0.7,0.8c-0.1,0.1-0.2,0.1-0.3,0.1
		C180.4,59.4,179.8,59.1,179.2,58.7z"/>
	<path class="st1" d="M187.2,58.4l-0.2-0.2l-0.2-0.2l0.1-0.1c0.1,0,0.2-0.1,0.3,0c0.1,0,0.1,0,0,0.2L187.2,58.4z"/>
	<path class="st1" d="M193.4,57.6c-0.1,0-0.7-0.4-0.7-0.4c0.1-0.1,1-0.2,1.1-0.2c0,0-0.1,0.1-0.1,0.3
		C193.5,57.4,193.4,57.6,193.4,57.6z"/>
	<path class="st1" d="M158.4,56.2c1.3,1.7,2,2.4,2.8,2.4c0.4,0,0.7-0.2,1.6-1c1.3-1.2,1.9-1.5,2.8-1.5c1.3,0,2.2,0.7,4,2.8
		c1,1.2,1.6,1.8,2,1.9c0.4,0.1,0.7,0,1.3-0.7c0.3-0.3,0.7-0.8,1-1.1c0.7-0.7,1-0.8,1.8-0.8c0.8,0,1.2,0.2,3.1,1.4
		c1,0.6,1.6,0.7,2.1,0.5c0.3-0.1,0.6-0.4,1.1-1c0.8-1.1,1.5-1.5,2.3-1.4c0.5,0.1,1,0.3,1.7,1c0.7,0.6,1,0.8,1.1,0.8
		c0.1,0,0.3-0.1,0.7-0.8c0.5-0.8,0.7-1.1,1.1-1.3c0.3-0.1,0.4-0.2,0.9-0.2s0.6,0,1,0.2c0.2,0.1,0.7,0.4,1,0.5c0.6,0.4,1,0.6,1.3,0.7
		c0.3,0.1,0.6-0.1,1.1-1c0.7-1.3,1.3-1.6,2.2-1.6c0.7-0.1,1,0.1,2.1,0.5c0.5,0.2,1,0.4,1.3,0.4c0.4,0.1,0.6,0.4,0.6,0.7
		c0,0.3-0.2,0.6-0.5,0.7c-0.2,0.1-0.4,0.1-1.6-0.4c-1.3-0.5-1.9-0.6-2.3-0.4c-0.1,0.1-0.4,0.4-0.6,0.7c-0.9,1.4-1.3,1.8-2.4,1.8
		c-0.5,0-1-0.2-1.8-0.7c-0.8-0.5-1.3-0.7-1.5-0.7c-0.2,0-0.4,0.2-0.9,1c-0.6,1-1,1.3-1.8,1.4c-0.4,0-0.4,0-0.8-0.1
		c-0.2-0.1-0.7-0.4-1-0.7c-0.6-0.5-1-0.7-1.2-0.7c-0.2,0-0.5,0.3-0.9,0.8c-0.9,1.2-1.6,1.6-2.5,1.7c-0.9,0.1-1.6-0.2-3.1-1.1
		c-1.9-1.2-2.2-1.2-3.4,0.1c-0.7,0.9-1.2,1.3-1.6,1.4c-0.8,0.3-1.8,0.1-2.7-0.7c-0.2-0.1-0.8-0.8-1.3-1.5c-1.5-1.8-2.2-2.4-3-2.4
		c-0.5,0-0.9,0.2-1.9,1.1c-1.2,1-1.6,1.3-2.3,1.4c-0.5,0.1-1.2-0.1-1.8-0.4s-1.4-1.1-2.2-2.2c-0.9-1.2-1.2-1.6-1.6-2
		c-0.3-0.3-0.3-0.4-0.3-0.7c0-0.4,0.2-0.6,0.5-0.7C156.7,54,156.9,54.2,158.4,56.2z"/>
	<path class="st1" d="M150.6,54.6c-0.1-0.1,0.1-0.5,0.4-1c0.5-0.9,1.5-1.7,2.4-2.1c1.3-0.5,3-0.4,4.6,0.1c3.8,1.3,9.1,2.3,13.8,2.8
		c4.3,0.4,9.1,0.3,13.3-0.1c4.1-0.4,8.1-1.3,11.8-2.5c1.4-0.4,2.2-0.6,3.2-0.5c1.5,0.1,2.5,0.4,3.4,1.4c0.5,0.5,0.7,0.7,1,1.3
		c0.2,0.4,0.4,0.7,0.4,0.7c0,0.1-0.1,0-0.3,0c-0.9-0.3-2.7-0.4-4-0.2c-0.4,0.1-1.1,0.2-1.6,0.4c-0.9,0.2-1,0.3-1.3,0.2
		c-1.3-0.3-2.2-0.1-3.1,0.7l-0.1,0.2l-1.3,0.3c-0.7,0.1-1.3,0.2-1.4,0.2c-0.1,0-0.4-0.1-0.6-0.1c-0.4-0.1-0.5-0.1-1-0.1
		c-0.7,0.1-1.2,0.2-1.6,0.6c-0.2,0.2-0.3,0.2-1.4,0.4l-1.1,0.1l-0.4-0.1c-0.4-0.2-1.3-0.3-1.8-0.1c-0.1,0.1-0.5,0.2-0.7,0.3
		c-0.4,0.2-0.4,0.2-1.5,0.3c-0.6,0.1-1.8,0.1-2.6,0.1c-1.4,0-1.6,0-1.9-0.1c-0.5-0.1-1.6-0.1-1.9-0.1c-0.3,0.1-1.5,0.1-4-0.1
		l-1.4-0.1l-0.5-0.4c-1-0.9-1.8-1.3-2.8-1.5c-1-0.1-1.8,0.1-2.7,0.7l-0.4,0.3l-1.1-0.2c-1-0.2-2.3-0.4-2.8-0.6
		c-0.2-0.1-0.3-0.1-0.7-0.6c-0.6-0.8-1.1-1.3-1.4-1.5c-0.3-0.1-0.9-0.1-1.3,0c-0.3,0.1-0.7,0.4-0.8,0.7c-0.1,0.2-0.1,0.2-0.2,0.2
		s-0.4-0.1-1-0.1c-1-0.1-1.8,0.1-2.6,0.2C150.9,54.6,150.6,54.6,150.6,54.6z"/>
	<path class="st1" d="M205.5,62.9c0.7,0.7,1.3,1.6,1.6,2.9c0.1,0.4,0.1,0.7,0.1,1.9c0,1.3,0,1.4-0.2,2.2c-0.4,1.4-1,2.5-1.8,3.5
		c-0.7,0.7-1,1-3.1,2.3c-4.6,2.8-12,4.6-21,4.9c-1.6,0.1-5.1,0.1-6.8,0c-8.7-0.4-16.3-2.2-20.8-4.9c-0.4-0.2-1-0.7-1.4-0.8
		c-0.8-0.5-1.4-1-1.9-1.6c-1.3-1.5-1.9-3.4-1.9-5.5c0-2.2,0.7-3.8,1.9-5c1-1,2.2-1.4,3.8-1.4c1.1,0,1.6,0.1,2.9,0.5
		c4.9,1.6,10.2,2.5,16.1,3c1.6,0.1,7.6,0.1,9.2,0c6.1-0.4,10.8-1.3,16.1-3c1.5-0.4,2.2-0.6,3.4-0.5c0.7,0,1,0.1,1.6,0.2
		C204.3,62,205,62.4,205.5,62.9z"/>
	<path class="st1" d="M147.9,64.1c-0.7-1.5-0.9-3.3-0.4-4.8c0.1-0.7,0.7-1.6,1-2.2c1.2-1.5,3.2-2.2,5.5-2c0.4,0.1,0.8,0.1,0.8,0.1
		s0.1,0.1,0.1,0.2c0.1,0.1,0.2,0.4,0.4,0.6c0.1,0.2,0.7,1,1.3,1.6c1,1.4,1.8,2.2,2.5,2.6c0.9,0.5,1.9,0.7,2.8,0.5
		c0.8-0.2,1.3-0.5,2.5-1.6c0.7-0.6,1.1-0.9,1.3-0.9s0.5,0.1,0.9,0.5c0.1,0.1,0.7,0.7,1.3,1.4c1.3,1.6,1.9,2.2,2.7,2.5
		c1,0.4,1.9,0.5,2.8,0.1c0.4-0.2,0.9-0.7,1.9-1.8c0.2-0.3,0.5-0.5,0.6-0.5c0.1,0,0.8,0.3,1.5,0.8c1.3,0.9,2.2,1.2,3.3,1.2
		c1.3,0,2.2-0.5,3.1-1.8c0.6-0.7,0.4-0.7,1.3-0.1c1,0.9,1.8,1.2,2.7,1c0.9-0.1,1.5-0.7,2.2-1.8l0.4-0.6l0.2,0.1
		c0.1,0.1,0.4,0.3,0.7,0.4c1,0.7,1.7,0.9,2.5,0.8c1-0.1,1.7-0.5,2.5-1.7c0.7-1.1,0.7-1,1-1c0.1,0,0.6,0.2,1,0.4
		c0.9,0.4,1.6,0.6,1.9,0.6c0.3,0,0.7-0.2,1-0.4c0.7-0.7,0.7-1.7-0.1-2.3c-0.2-0.2-1.1-0.6-1.3-0.5c0,0-0.1,0-0.1-0.1s0-0.1-0.1,0
		c-0.1,0-0.1,0-0.1,0c0-0.1,0.2-0.1,0.5-0.2c2.8-0.7,5.2-0.1,6.7,1.4c1.7,1.7,2,4.6,0.9,7.2l-0.2,0.4l-0.2-0.4
		c-0.6-1-1.3-1.8-2.1-2.3c-1.1-0.7-2.1-1-3.6-1c-1.1,0-1.9,0.1-2.9,0.4c-10.1,3.4-21.7,4.1-32.8,2.2c-3-0.5-5.9-1.2-8.8-2.2
		c-1.3-0.4-2.1-0.5-3.3-0.4c-1.1,0.1-1.8,0.2-2.6,0.6c-1,0.5-1.8,1.1-2.4,2.1c-0.1,0.2-0.4,0.6-0.4,0.7l-0.1,0.3L147.9,64.1z"/>
</g>
<path class="st0" d="M52.7,58.6l54.8-54.9c3.6-3.6,9.3-3.6,12.9,0l54.9,54.9c3.6,3.6,3.6,9.3,0,12.9l-54.9,54.9
	c-3.6,3.6-9.3,3.6-12.9,0l-54.8-55C49.1,67.8,49.1,62.1,52.7,58.6z"/>
<g id="layer101">
	<path class="st1" d="M90.1,56c-0.3-0.3-0.6-0.6-0.5-0.6c0,0,0.4,0.1,0.9,0.2c0.5,0.1,1.3,0.3,1.8,0.4c0.5,0.1,0.9,0.2,0.9,0.2
		s-0.3,0.3-0.6,0.5c-0.3,0.3-0.7,0.5-0.8,0.5C91.4,57.1,90.8,56.6,90.1,56z"/>
	<path class="st1" d="M105.4,59.4c-0.8-0.8-1.6-1.8-1.5-1.8c0,0,4,0.2,4.2,0.3c0,0-0.3,0.4-0.7,1C106,60.3,106.2,60.2,105.4,59.4z"
		/>
	<path class="st1" d="M115.7,58.3l-0.5-0.3l0.8-0.1c1.1-0.1,3-0.1,3-0.1c0,0.1-0.7,1-0.9,1.1c-0.2,0.1-0.3,0.2-0.4,0.2
		C117.3,59.3,116.5,58.9,115.7,58.3z"/>
	<path class="st1" d="M126.4,57.9l-0.3-0.3l-0.3-0.3l0.2-0.1c0.1,0,0.3-0.1,0.4,0c0.2,0,0.2,0,0,0.3L126.4,57.9z"/>
	<path class="st1" d="M134.6,56.8c-0.1,0-1-0.6-1-0.6c0.2-0.1,1.4-0.3,1.5-0.3c0,0-0.1,0.2-0.2,0.4
		C134.7,56.6,134.6,56.8,134.6,56.8z"/>
	<path class="st1" d="M88,55c1.7,2.3,2.7,3.2,3.7,3.2c0.6,0,1-0.3,2.2-1.4c1.7-1.6,2.5-2,3.8-2c1.7,0,3,0.9,5.3,3.7
		c1.3,1.6,2.2,2.4,2.7,2.6c0.6,0.2,0.9,0,1.7-0.9c0.4-0.4,1-1.1,1.4-1.5c0.9-0.9,1.4-1.1,2.4-1.1c1.1,0,1.6,0.3,4.2,1.9
		c1.3,0.8,2.1,1,2.8,0.7c0.4-0.2,0.8-0.5,1.5-1.4c1.1-1.5,2-2,3.1-1.9c0.7,0.1,1.3,0.4,2.3,1.3c0.9,0.8,1.3,1.1,1.5,1.1
		s0.4-0.2,0.9-1.1c0.7-1.1,1-1.5,1.5-1.8c0.4-0.2,0.6-0.3,1.2-0.3c0.6,0,0.8,0,1.3,0.3c0.3,0.2,0.9,0.5,1.3,0.7
		c0.8,0.6,1.3,0.8,1.7,0.9c0.4,0.1,0.8-0.2,1.5-1.4c1-1.7,1.7-2.1,3-2.2c0.9-0.1,1.4,0.1,2.8,0.7c0.7,0.3,1.4,0.6,1.7,0.6
		c0.6,0.2,0.8,0.5,0.8,1c0,0.4-0.3,0.8-0.7,0.9c-0.3,0.1-0.6,0.1-2.1-0.6c-1.8-0.7-2.5-0.8-3.1-0.5c-0.2,0.1-0.5,0.5-0.8,1
		c-1.2,1.9-1.8,2.4-3.2,2.4c-0.7,0-1.3-0.3-2.4-0.9c-1.1-0.7-1.7-1-2-1s-0.6,0.3-1.2,1.4c-0.8,1.4-1.4,1.8-2.4,1.9
		c-0.5,0-0.6,0-1.1-0.2c-0.3-0.2-0.9-0.6-1.4-1c-0.8-0.7-1.3-1-1.6-1c-0.3,0-0.7,0.4-1.2,1.1c-1.2,1.6-2.1,2.2-3.4,2.3
		c-1.2,0.1-2.1-0.3-4.1-1.5c-2.6-1.6-2.9-1.6-4.5,0.2c-1,1.2-1.6,1.7-2.2,1.9c-1.1,0.4-2.4,0.1-3.6-1c-0.3-0.2-1.1-1.1-1.8-2
		c-2-2.4-3-3.2-4-3.2c-0.7,0-1.2,0.3-2.5,1.5c-1.6,1.4-2.1,1.7-3.1,1.9c-0.7,0.1-1.6-0.1-2.4-0.5c-0.8-0.4-1.9-1.5-3-3
		c-1.2-1.6-1.6-2.1-2.1-2.7C84,53.7,84,53.6,84,53.2c0-0.5,0.3-0.8,0.7-0.9C85.7,52,86,52.3,88,55z"/>
	<path class="st1" d="M77.6,52.9c-0.1-0.1,0.2-0.7,0.6-1.4c0.7-1.2,2-2.3,3.2-2.8c1.7-0.7,4-0.6,6.1,0.1c5.1,1.7,12.2,3.1,18.4,3.7
		c5.7,0.5,12.1,0.4,17.7-0.2c5.5-0.6,10.8-1.7,15.7-3.3c1.9-0.6,3-0.8,4.3-0.7c2,0.1,3.3,0.6,4.6,1.9c0.7,0.7,0.9,1,1.3,1.7
		c0.3,0.5,0.5,1,0.5,1c0,0.1-0.2,0-0.4,0c-1.2-0.4-3.6-0.5-5.3-0.3c-0.5,0.1-1.5,0.3-2.2,0.5c-1.2,0.3-1.3,0.4-1.7,0.3
		c-1.7-0.4-3-0.1-4.2,0.9l-0.2,0.3l-1.7,0.4c-0.9,0.2-1.8,0.3-1.9,0.3c-0.1,0-0.5-0.1-0.8-0.2c-0.5-0.2-0.7-0.2-1.4-0.2
		c-0.9,0.1-1.6,0.3-2.1,0.8c-0.3,0.3-0.4,0.3-1.9,0.5l-1.5,0.2l-0.5-0.2c-0.6-0.3-1.7-0.4-2.4-0.2c-0.2,0.1-0.7,0.3-1,0.4
		c-0.5,0.3-0.5,0.3-2,0.4c-0.8,0.1-2.4,0.1-3.5,0.1c-1.9,0-2.1,0-2.6-0.1c-0.7-0.2-2.1-0.2-2.6-0.1c-0.4,0.1-2,0.1-5.4-0.2l-1.9-0.2
		l-0.7-0.6c-1.3-1.2-2.4-1.8-3.7-2c-1.3-0.2-2.4,0.1-3.6,1l-0.6,0.4l-1.5-0.3c-1.4-0.3-3.1-0.6-3.8-0.8c-0.3-0.1-0.4-0.2-0.9-0.8
		c-0.8-1.1-1.5-1.8-1.9-2s-1.2-0.2-1.7,0c-0.4,0.2-0.9,0.6-1.1,1c-0.1,0.3-0.2,0.3-0.3,0.3s-0.6-0.1-1.3-0.1
		c-1.3-0.1-2.4,0.1-3.5,0.3C78,52.8,77.6,52.9,77.6,52.9z"/>
	<path class="st1" d="M150.7,64c1,1,1.7,2.2,2.1,3.9c0.2,0.6,0.2,0.9,0.2,2.6c0,1.8,0,1.9-0.3,2.9c-0.5,1.9-1.3,3.4-2.4,4.7
		c-0.9,1-1.4,1.4-4.2,3.1c-6.1,3.7-16,6.1-28,6.6c-2.2,0.1-6.8,0.1-9.1,0c-11.6-0.6-21.8-3-27.7-6.6c-0.6-0.3-1.4-0.9-1.9-1.1
		c-1.1-0.7-1.9-1.3-2.6-2.1c-1.7-2-2.5-4.5-2.5-7.3c0-2.9,0.9-5.1,2.6-6.7c1.4-1.3,2.9-1.9,5.1-1.9c1.5,0,2.2,0.1,3.9,0.7
		c6.6,2.1,13.6,3.4,21.5,4c2.1,0.2,10.2,0.2,12.3,0c8.1-0.6,14.4-1.8,21.5-4c2-0.6,2.9-0.8,4.6-0.7c1,0,1.3,0.1,2.1,0.3
		C149.1,62.8,150,63.3,150.7,64z"/>
	<path class="st1" d="M74,65.4c-0.9-2-1.2-4.4-0.6-6.4c0.2-0.9,0.9-2.2,1.4-2.9c1.6-2,4.3-3,7.3-2.7c0.6,0.1,1.1,0.1,1.1,0.1
		s0.1,0.1,0.2,0.3c0.1,0.2,0.3,0.5,0.6,0.8c0.2,0.3,1,1.3,1.8,2.2c1.4,1.9,2.4,3,3.4,3.5c1.2,0.7,2.6,1,3.7,0.7
		c1.1-0.3,1.8-0.7,3.3-2.1c0.9-0.8,1.5-1.2,1.8-1.2s0.7,0.2,1.2,0.7c0.2,0.2,0.9,1,1.7,1.9c1.7,2.1,2.6,2.9,3.6,3.4
		c1.3,0.6,2.5,0.7,3.7,0.1c0.6-0.3,1.2-0.9,2.6-2.4c0.3-0.4,0.7-0.7,0.8-0.7c0.2,0,1.1,0.4,2,1.1c1.8,1.2,3,1.6,4.4,1.6
		c1.7,0,2.9-0.7,4.2-2.4c0.8-1,0.6-1,1.7-0.1c1.4,1.2,2.4,1.6,3.6,1.4c1.2-0.2,2-0.9,2.9-2.4l0.5-0.8l0.3,0.2
		c0.2,0.1,0.6,0.4,0.9,0.6c1.4,0.9,2.3,1.2,3.3,1.1c1.4-0.1,2.3-0.7,3.3-2.3c1-1.5,0.9-1.4,1.3-1.3c0.2,0,0.8,0.3,1.4,0.5
		c1.2,0.5,2.2,0.8,2.5,0.8c0.4,0,1-0.3,1.4-0.6c0.9-0.9,0.9-2.3-0.1-3.1c-0.3-0.3-1.5-0.8-1.8-0.7c0,0-0.1,0-0.1-0.1
		c0-0.1,0-0.1-0.1,0c-0.1,0-0.1,0-0.1,0c0-0.1,0.3-0.2,0.7-0.3c3.8-0.9,7-0.2,9,1.9c2.3,2.3,2.7,6.2,1.2,9.6l-0.3,0.6l-0.3-0.5
		c-0.8-1.4-1.7-2.4-2.8-3.1c-1.5-1-2.8-1.4-4.8-1.4c-1.5,0-2.5,0.1-3.9,0.6c-13.5,4.5-29,5.5-43.8,3c-4-0.7-7.9-1.6-11.8-2.9
		c-1.7-0.6-2.8-0.7-4.4-0.6c-1.5,0.1-2.4,0.3-3.5,0.8c-1.4,0.7-2.4,1.5-3.2,2.8c-0.2,0.3-0.5,0.8-0.6,1l-0.2,0.4L74,65.4z"/>
</g>
</svg>
