<?xml version="1.0" encoding="utf-8"?>
<!-- Generator: Adobe Illustrator 24.0.1, SVG Export Plug-In . SVG Version: 6.00 Build 0)  -->
<svg version="1.1" id="Layer_1" xmlns="http://www.w3.org/2000/svg" xmlns:xlink="http://www.w3.org/1999/xlink" x="0px" y="0px"
	 width="230px" height="128px" viewBox="0 0 230 128" style="enable-background:new 0 0 230 128;" xml:space="preserve">
<style type="text/css">
	.st0{fill:#FFBC00;}
	.st1{fill:#131417;}
</style>
<path class="st0" d="M2.7,57.6L57.5,2.7c3.6-3.6,9.3-3.6,12.9,0l54.9,54.9c3.6,3.6,3.6,9.3,0,12.9l-54.9,54.9
	c-3.6,3.6-9.3,3.6-12.9,0L2.7,70.4C-0.9,66.9-0.9,61.1,2.7,57.6z"/>
<path class="st0" d="M104.7,57.6l54.9-54.9c3.6-3.6,9.3-3.6,12.9,0l54.9,54.9c3.6,3.6,3.6,9.3,0,12.9l-54.9,54.9
	c-3.6,3.6-9.3,3.6-12.9,0l-54.9-54.9C101.2,66.9,101.2,61.1,104.7,57.6z"/>
<g id="layer101">
	<path class="st1" d="M40.1,55c-0.3-0.3-0.6-0.6-0.5-0.6c0,0,0.4,0.1,0.9,0.2c0.5,0.1,1.3,0.3,1.8,0.4c0.5,0.1,0.9,0.2,0.9,0.2
		c0,0-0.3,0.3-0.6,0.5c-0.3,0.3-0.7,0.5-0.8,0.5C41.4,56.1,40.8,55.6,40.1,55z"/>
	<path class="st1" d="M55.4,58.4c-0.8-0.8-1.6-1.8-1.5-1.8c0,0,4,0.2,4.2,0.3c0,0-0.3,0.4-0.7,1C56,59.3,56.2,59.2,55.4,58.4z"/>
	<path class="st1" d="M65.7,57.3L65.2,57l0.8-0.1c1.1-0.1,3-0.1,3-0.1c0,0.1-0.7,1-0.9,1.1c-0.2,0.1-0.3,0.2-0.4,0.2
		C67.3,58.3,66.5,57.9,65.7,57.3z"/>
	<path class="st1" d="M76.4,56.9l-0.3-0.3l-0.3-0.3l0.2-0.1c0.1,0,0.3-0.1,0.4,0c0.2,0,0.2,0,0,0.3L76.4,56.9z"/>
	<path class="st1" d="M84.7,55.8c-0.1,0-1-0.6-1-0.6c0.2-0.1,1.4-0.3,1.5-0.3c0,0-0.1,0.2-0.2,0.4C84.8,55.6,84.7,55.8,84.7,55.8z"
		/>
	<path class="st1" d="M38,54c1.7,2.3,2.7,3.2,3.7,3.2c0.6,0,1-0.3,2.2-1.4c1.7-1.6,2.5-2,3.8-2c1.7,0,3,0.9,5.3,3.7
		c1.3,1.6,2.2,2.4,2.7,2.6c0.6,0.2,0.9,0,1.7-0.9c0.4-0.4,1-1.1,1.4-1.5c0.9-0.9,1.4-1.1,2.4-1.1c1.1,0,1.6,0.3,4.2,1.9
		c1.3,0.8,2.1,1,2.8,0.7c0.4-0.2,0.8-0.5,1.5-1.4c1.1-1.5,2-2,3.1-1.9c0.7,0.1,1.3,0.4,2.3,1.3c0.9,0.8,1.3,1.1,1.5,1.1
		c0.2,0,0.4-0.2,0.9-1.1c0.7-1.1,1-1.5,1.5-1.8c0.4-0.2,0.6-0.3,1.2-0.3c0.6,0,0.8,0,1.3,0.3c0.3,0.2,0.9,0.5,1.3,0.7
		c0.8,0.6,1.3,0.8,1.7,0.9c0.4,0.1,0.8-0.2,1.5-1.4c1-1.7,1.7-2.1,3-2.2c0.9-0.1,1.4,0.1,2.8,0.7c0.7,0.3,1.4,0.6,1.7,0.6
		c0.6,0.2,0.8,0.5,0.8,1c0,0.4-0.3,0.8-0.7,0.9c-0.3,0.1-0.6,0.1-2.1-0.6c-1.8-0.7-2.5-0.8-3.1-0.5c-0.2,0.1-0.5,0.5-0.8,1
		c-1.2,1.9-1.8,2.4-3.2,2.4c-0.7,0-1.3-0.3-2.4-0.9c-1.1-0.7-1.7-1-2-1c-0.3,0-0.6,0.3-1.2,1.4c-0.8,1.4-1.4,1.8-2.4,1.9
		c-0.5,0-0.6,0-1.1-0.2c-0.3-0.2-0.9-0.6-1.4-1c-0.8-0.7-1.3-1-1.6-1c-0.3,0-0.7,0.4-1.2,1.1c-1.2,1.6-2.1,2.2-3.4,2.3
		c-1.2,0.1-2.1-0.3-4.1-1.5c-2.6-1.6-2.9-1.6-4.5,0.2c-1,1.2-1.6,1.7-2.2,1.9c-1.1,0.4-2.4,0.1-3.6-1c-0.3-0.2-1.1-1.1-1.8-2
		c-2-2.4-3-3.2-4-3.2c-0.7,0-1.2,0.3-2.5,1.5c-1.6,1.4-2.1,1.7-3.1,1.9c-0.7,0.1-1.6-0.1-2.4-0.5c-0.8-0.4-1.9-1.5-3-3
		c-1.2-1.6-1.6-2.1-2.1-2.7c-0.4-0.4-0.4-0.5-0.4-0.9c0-0.5,0.3-0.8,0.7-0.9C35.7,51,36,51.3,38,54z"/>
	<path class="st1" d="M27.6,51.9c-0.1-0.1,0.2-0.7,0.6-1.4c0.7-1.2,2-2.3,3.2-2.8c1.7-0.7,4-0.6,6.1,0.1c5.1,1.7,12.2,3.1,18.4,3.7
		c5.7,0.5,12.1,0.4,17.7-0.2c5.5-0.6,10.8-1.7,15.7-3.3c1.9-0.6,3-0.8,4.3-0.7c2,0.1,3.3,0.6,4.6,1.9c0.7,0.7,0.9,1,1.3,1.7
		c0.3,0.5,0.5,1,0.5,1c0,0.1-0.2,0-0.4,0c-1.2-0.4-3.6-0.5-5.3-0.3c-0.5,0.1-1.5,0.3-2.2,0.5c-1.2,0.3-1.3,0.4-1.7,0.3
		c-1.7-0.4-3-0.1-4.2,0.9L86,53.6L84.3,54c-0.9,0.2-1.8,0.3-1.9,0.3c-0.1,0-0.5-0.1-0.8-0.2c-0.5-0.2-0.7-0.2-1.4-0.2
		c-0.9,0.1-1.6,0.3-2.1,0.8c-0.3,0.3-0.4,0.3-1.9,0.5l-1.5,0.2l-0.5-0.2c-0.6-0.3-1.7-0.4-2.4-0.2c-0.2,0.1-0.7,0.3-1,0.4
		c-0.5,0.3-0.5,0.3-2,0.4c-0.8,0.1-2.4,0.1-3.5,0.1c-1.9,0-2.1,0-2.6-0.1c-0.7-0.2-2.1-0.2-2.6-0.1c-0.4,0.1-2,0.1-5.4-0.2l-1.9-0.2
		l-0.7-0.6c-1.3-1.2-2.4-1.8-3.7-2c-1.3-0.2-2.4,0.1-3.6,1l-0.6,0.4l-1.5-0.3c-1.4-0.3-3.1-0.6-3.8-0.8c-0.3-0.1-0.4-0.2-0.9-0.8
		c-0.8-1.1-1.5-1.8-1.9-2c-0.4-0.2-1.2-0.2-1.7,0c-0.4,0.2-0.9,0.6-1.1,1c-0.1,0.3-0.2,0.3-0.3,0.3c-0.1,0-0.6-0.1-1.3-0.1
		c-1.3-0.1-2.4,0.1-3.5,0.3C28,51.8,27.6,51.9,27.6,51.9z"/>
	<path class="st1" d="M100.8,63c1,1,1.7,2.2,2.1,3.9c0.2,0.6,0.2,0.9,0.2,2.6c0,1.8,0,1.9-0.3,2.9c-0.5,1.9-1.3,3.4-2.4,4.7
		c-0.9,1-1.4,1.4-4.2,3.1c-6.1,3.7-16,6.1-28,6.6c-2.2,0.1-6.8,0.1-9.1,0c-11.6-0.6-21.8-3-27.7-6.6c-0.6-0.3-1.4-0.9-1.9-1.1
		c-1.1-0.7-1.9-1.3-2.6-2.1c-1.7-2-2.5-4.5-2.5-7.3c0-2.9,0.9-5.1,2.6-6.7c1.4-1.3,2.9-1.9,5.1-1.9c1.5,0,2.2,0.1,3.9,0.7
		c6.6,2.1,13.6,3.4,21.5,4c2.1,0.2,10.2,0.2,12.3,0c8.1-0.6,14.4-1.8,21.5-4c2-0.6,2.9-0.8,4.6-0.7c1,0,1.3,0.1,2.1,0.3
		C99.2,61.8,100.1,62.3,100.8,63z"/>
	<path class="st1" d="M24,64.5c-0.9-2-1.2-4.4-0.6-6.4c0.2-0.9,0.9-2.2,1.4-2.9c1.6-2,4.3-3,7.3-2.7c0.6,0.1,1.1,0.1,1.1,0.1
		c0,0,0.1,0.1,0.2,0.3c0.1,0.2,0.3,0.5,0.6,0.8c0.2,0.3,1,1.3,1.8,2.2c1.4,1.9,2.4,3,3.4,3.5c1.2,0.7,2.6,1,3.7,0.7
		c1.1-0.3,1.8-0.7,3.3-2.1c0.9-0.8,1.5-1.2,1.8-1.2c0.3,0,0.7,0.2,1.2,0.7c0.2,0.2,0.9,1,1.7,1.9c1.7,2.1,2.6,2.9,3.6,3.4
		c1.3,0.6,2.5,0.7,3.7,0.1c0.6-0.3,1.2-0.9,2.6-2.4c0.3-0.4,0.7-0.7,0.8-0.7c0.2,0,1.1,0.4,2,1.1c1.8,1.2,3,1.6,4.4,1.6
		c1.7,0,2.9-0.7,4.2-2.4c0.8-1,0.6-1,1.7-0.1c1.4,1.2,2.4,1.6,3.6,1.4c1.2-0.2,2-0.9,2.9-2.4l0.5-0.8l0.3,0.2
		c0.2,0.1,0.6,0.4,0.9,0.6c1.4,0.9,2.3,1.2,3.3,1.1c1.4-0.1,2.3-0.7,3.3-2.3c1-1.5,0.9-1.4,1.3-1.3c0.2,0,0.8,0.3,1.4,0.5
		c1.2,0.5,2.2,0.8,2.5,0.8c0.4,0,1-0.3,1.4-0.6c0.9-0.9,0.9-2.3-0.1-3.1c-0.3-0.3-1.5-0.8-1.8-0.7c0,0-0.1,0-0.1-0.1
		c0-0.1,0-0.1-0.1,0c-0.1,0-0.1,0-0.1,0c0-0.1,0.3-0.2,0.7-0.3c3.8-0.9,7-0.2,9,1.9c2.3,2.3,2.7,6.2,1.2,9.6l-0.3,0.6l-0.3-0.5
		c-0.8-1.4-1.7-2.4-2.8-3.1c-1.5-1-2.8-1.4-4.8-1.4c-1.5,0-2.5,0.1-3.9,0.6c-13.5,4.5-29,5.5-43.8,3c-4-0.7-7.9-1.6-11.8-2.9
		c-1.7-0.6-2.8-0.7-4.4-0.6c-1.5,0.1-2.4,0.3-3.5,0.8c-1.4,0.7-2.4,1.5-3.2,2.8c-0.2,0.3-0.5,0.8-0.6,1l-0.2,0.4L24,64.5z"/>
</g>
<path class="st1" d="M143.8,63.9l-9.1,9.1l-9.2-9.1l9.1-9.1L143.8,63.9z M166,41.7l15.7,15.7l9.1-9.1L166,23.4l-24.8,24.8l9.1,9.1
	L166,41.7z M197.3,54.8l-9.1,9.1l9.1,9.1l9.1-9.1L197.3,54.8z M166,86.1l-15.7-15.7l-9.1,9.1l24.8,24.8l24.8-24.8l-9.1-9.1L166,86.1
	z M166,73.1l9.1-9.1l-9.1-9.1l-9.2,9.1L166,73.1z"/>
</svg>
