<?xml version="1.0" encoding="utf-8"?>
<!-- Generator: Adobe Illustrator 24.0.1, SVG Export Plug-In . SVG Version: 6.00 Build 0)  -->
<svg version="1.1" id="Layer_1" xmlns="http://www.w3.org/2000/svg" xmlns:xlink="http://www.w3.org/1999/xlink" x="0px" y="0px"
	 width="1024px" height="1024px" viewBox="0 0 1024 1024" style="enable-background:new 0 0 1024 1024;" xml:space="preserve">
<style type="text/css">
	.st0{fill:#FFBC00;}
	.st1{fill:#131417;}
</style>
<path class="st0" d="M32.8,461.7L461.7,32.8c27.8-27.8,72.8-27.8,100.6,0l428.9,428.9c27.8,27.8,27.8,72.8,0,100.6L562.3,991.2
	c-27.8,27.8-72.8,27.8-100.6,0L32.8,562.3C5.1,534.5,5.1,489.5,32.8,461.7z"/>
<g id="layer101">
	<path class="st1" d="M325.6,441.3c-2.4-2.6-4.3-4.7-4.1-4.8c0.1-0.1,3.3,0.5,6.9,1.3c3.7,0.9,9.8,2.2,13.7,2.9
		c3.8,0.7,6.9,1.6,6.9,1.8c0,0.3-2.1,2.1-4.5,4.1c-2.6,2.1-5.2,3.6-6.2,3.6C335.7,450.3,330.6,446.7,325.6,441.3z"/>
	<path class="st1" d="M444.9,468.3c-6.4-6.4-12.5-13.7-12.1-14.1c0.3-0.3,31.4,1.6,32.6,2c0.3,0.1-2.3,3.5-5.7,7.6
		C449.9,475.3,451.4,474.8,444.9,468.3z"/>
	<path class="st1" d="M525.6,460l-3.8-2.5l6.6-0.4c8.4-0.6,23.2-0.9,23.2-0.5c0,0.9-5.5,7.5-7.4,8.9c-1.2,1-2.7,1.8-3.3,1.7
		C538.1,467.1,532.1,464.2,525.6,460z"/>
	<path class="st1" d="M609.4,456.8l-2-2.1l-2.1-2.1l1.8-0.4c1-0.3,2.4-0.4,3.2-0.2c1.4,0.2,1.4,0.3,0.2,2.6L609.4,456.8z"/>
	<path class="st1" d="M673.7,448.1c-1.1-0.1-8.1-4.5-7.5-4.7c1.6-0.5,11.3-2.2,11.5-2c0.1,0.1-0.6,1.7-1.6,3.5
		C675,446.7,673.9,448.2,673.7,448.1z"/>
	<path class="st1" d="M309.3,434.2c13.5,18.1,21.3,24.8,29.2,24.9c4.4,0,7.8-2.1,17.3-10.8c13.5-12.4,19.8-15.9,29.4-15.9
		c13.4,0,23.3,6.9,41.8,28.9c10.3,12.3,17.4,19.1,21.1,20.3c4.5,1.3,7.2,0,13-6.7c2.8-3.2,7.7-8.4,10.8-11.5c6.9-7,10.9-8.9,19-8.9
		c8.4,0.1,12.8,2.1,32.9,14.5c10.3,6.4,16.4,8,22,5.7c3.3-1.3,6.3-4.2,11.5-11c8.8-11.5,15.4-15.4,24-14.6
		c5.6,0.6,10.4,3.3,17.6,9.8c7,6.4,9.8,8.4,12,8.4c1.9,0,2.9-1.2,7.4-8.9c5.1-8.7,7.7-11.7,12.1-14.2c3.3-1.8,4.5-2.1,9.5-2.1
		c4.9,0,6.3,0.3,10.3,2.2c2.6,1.3,7.1,3.8,9.9,5.8c6.5,4.3,10.3,6.2,13.5,6.9c3.5,0.6,5.9-1.6,11.9-11.2c8.1-13,13.2-16.7,23.6-17.4
		c6.8-0.4,10.6,0.5,22.2,5.2c5.1,2.1,10.9,4.3,12.9,4.9c4.5,1.5,6.6,3.9,6.6,7.5c0,3.3-2.1,6-5.2,7.1c-2.7,0.9-4.5,0.4-16.7-4.6
		c-13.7-5.6-19.6-6.6-23.9-4c-1.3,0.9-3.8,4-6.4,8.2c-9.1,15.1-14.2,19.1-24.7,19c-5.5-0.1-10.5-2-18.7-7.3
		c-8.4-5.5-13-7.8-15.3-7.8c-2.6,0-5,2.7-9.7,10.6c-6.4,10.8-10.6,14.2-18.8,14.7c-3.9,0.3-5,0-8.9-1.8c-2.6-1.3-7.2-4.7-11.1-8.2
		c-6.4-5.8-10-8.2-12.5-8.2c-2.1,0-5.2,2.8-9.7,8.7c-9.6,12.7-16.3,17.2-26.2,18c-9,0.7-16.6-2.1-32-11.9
		c-20-12.8-22.8-12.6-34.9,1.9c-7.8,9.4-12.2,13.3-17,15.1c-8.9,3.4-18.6,0.6-28.4-8.1c-2-1.8-8.3-8.8-14-15.5
		c-16-19.1-23.2-24.8-31.2-24.8c-5.1,0-9.1,2.4-19.3,11.6c-12.5,11.3-16.3,13.6-24,15c-5.1,0.9-12.3-0.6-19-4
		c-6.6-3.5-15.2-12-23.5-23.3c-9.4-12.8-12.3-16.7-16.1-20.8c-3-3.3-3.4-4.2-3.4-6.8c0-3.9,2-6.6,5.4-7.2
		C290.9,410.6,293.3,413,309.3,434.2z"/>
	<path class="st1" d="M227.9,417.4c-0.4-0.5,1.9-5.7,5-11.1c5.4-9.4,15.5-18.2,25.2-21.8c13.6-5.2,31.5-4.9,48,0.7
		c39.5,13.5,95.1,24.5,144.1,28.7c44.6,3.8,94.7,3.1,138.7-1.7c42.8-4.7,84.6-13.6,122.9-26c15.1-4.9,23.1-6.2,33.9-5.7
		c15.9,0.8,25.7,4.9,35.9,15c5.3,5.3,6.9,7.6,10.1,13.6c2.1,4,3.7,7.5,3.7,7.9c0,0.4-1.2,0.3-2.8-0.3c-9-3.1-28.1-4-41.5-2.1
		c-3.9,0.6-11.6,2.4-17.2,4c-9.1,2.6-10.5,2.8-13.5,2.1c-12.9-2.8-23.7-0.5-32.5,7.2l-3.7,3.2l-13.3,2.6c-7.3,1.4-14.1,2.6-15.1,2.6
		c-1,0.1-3.8-0.6-6.4-1.5c-3.9-1.3-5.6-1.5-11.1-1.3c-7.2,0.4-12.3,2.3-16.7,6.1c-2.4,2.2-2.9,2.3-14.7,3.6l-12.1,1.4l-4-1.8
		c-4.9-2.3-13-3-18.6-1.6c-1.9,0.4-5.4,2-7.7,3.3c-4.1,2.5-4.2,2.5-15.4,3c-6.2,0.4-18.5,0.8-27.3,0.9c-14.6,0.3-16.3,0.2-20.2-1.1
		c-5.2-1.7-16.2-1.9-20.5-0.4c-3.3,1.1-15.7,0.7-41.9-1.5l-15-1.2l-5.2-4.8c-10.2-9.4-18.8-14-29.1-15.5c-9.8-1.4-18.4,0.9-28,7.7
		l-4.7,3.2l-11.4-2.2c-11-2.1-24.1-5-29.6-6.4c-2.1-0.6-3.5-1.8-6.9-6.3c-6.4-8.4-12-14.2-15.2-15.7c-3.5-1.6-9.4-1.7-13-0.2
		c-3.4,1.4-6.7,4.7-8.4,8.1c-0.9,2-1.6,2.7-2.3,2.4c-0.6-0.2-5-0.6-9.9-0.9c-9.8-0.4-18.8,0.4-27,2.6
		C230.6,417,228.1,417.5,227.9,417.4z"/>
	<path class="st1" d="M800.1,504.5c7.7,7.6,13.1,17.4,16.8,30.8c1.3,4.7,1.6,7.3,1.6,20c0,14-0.1,14.9-2.2,22.7
		c-3.9,14.7-9.9,26.4-18.8,36.9c-6.9,8.1-10.8,11-33.1,24.6c-47.7,29.1-125.4,47.5-219.1,51.9c-17.5,0.8-52.9,0.8-71.1-0.1
		C383.8,687,304,668,258,639.9c-4.3-2.6-10.8-6.7-14.5-8.9c-8.7-5.2-15-10.5-20-16.7c-13.1-16-19.7-35.3-19.7-57.3
		c0-22.5,6.7-40,20.1-52.6c10.8-10.1,23-14.6,39.8-14.7c11.5-0.1,16.9,0.9,30.8,5.4c51.4,16.5,105.9,26.6,168.3,31.2
		c16.7,1.2,79.9,1.2,96.4,0c63.3-4.7,112.4-13.7,167.9-31.2c16-5,23-6.1,35.9-5.7c8.2,0.3,10.3,0.6,16.2,2.6
		C787.7,495,794.4,498.9,800.1,504.5z"/>
	<path class="st1" d="M199.6,516.1c-7-15.3-9-34.7-5-49.8c1.8-7.2,6.7-17.2,10.9-22.5c12.3-15.4,33.4-23.2,57.2-21.1
		c4.5,0.4,8.3,0.7,8.6,0.7c0.3,0,1.1,1.1,1.7,2.3c0.6,1.2,2.7,4,4.5,6c1.9,2.1,8,9.8,13.7,17.4c10.8,14.5,19.1,23.2,26.2,27.4
		c9.1,5.5,20.5,7.7,28.6,5.6c8.6-2.3,14.2-5.8,25.7-16.4c7-6.4,11.6-9.6,14.1-9.6c2,0,5.2,1.8,9.6,5.2c1.5,1.2,7.4,7.7,13.1,14.6
		c13.5,16.2,20.3,22.5,27.9,26.3c10.3,5,19.3,5.2,28.8,0.4c4.7-2.4,9.3-6.7,20.1-19c2.7-3,5.3-5.5,6-5.5c1.6,0,8.3,3.5,15.8,8.4
		c14,9.1,23.7,12.8,34,12.8c13.2,0,23-5.6,32.9-18.7c6-7.9,5-7.9,13-0.9c10.8,9.5,18.8,12.7,28.2,11c9.3-1.6,15.4-6.7,22.3-18.4
		l3.7-6.3l2.6,1.6c1.4,0.9,4.5,2.8,6.8,4.3c10.6,6.9,17.8,9.4,26,8.8c10.9-0.7,18.1-5.8,26.1-18.2c7.5-11.6,6.7-10.8,10.1-10.3
		c1.6,0.3,6.6,2.1,11.1,3.9c9.4,4,17,6.4,19.8,6.4c3.3,0,8.2-2.1,10.6-4.4c7.3-7.2,7-17.6-0.6-24.1c-2.4-2.1-12.1-6.1-13.7-5.7
		c-0.3,0.1-0.5-0.2-0.5-0.6c0-0.4-0.3-0.6-0.6-0.3c-0.4,0.2-0.9,0.1-1.1-0.3c-0.3-0.4,2.3-1.3,5.7-2.1c29.8-6.9,54.8-1.7,70.5,14.5
		c17.6,18.3,21.2,48.3,9,75l-2.2,4.8l-2-3.7c-6-10.8-13-18.8-21.5-24.4c-12.1-7.9-21.6-10.6-37.6-10.6c-12,0-19.7,1.1-30.2,4.5
		c-105.8,34.8-226.3,43-342.5,23.4c-31.6-5.3-61.5-12.6-92-22.4c-13.3-4.3-21.5-5.5-34.2-5c-11.8,0.4-18.4,2-27.6,6.4
		c-10.8,5.2-18.4,11.8-24.8,21.7c-1.7,2.6-3.8,6.2-4.8,8.1l-1.8,3.5L199.6,516.1z"/>
</g>
</svg>
